<svg xmlns="http://www.w3.org/2000/svg" version="1.1" xmlns:xlink="http://www.w3.org/1999/xlink" xmlns:svgjs="http://svgjs.dev/svgjs" width="1000" height="623" viewBox="0 0 1000 623"><g transform="matrix(1,0,0,1,-0.6060606060606233,0.2522267206477409)"><svg viewBox="0 0 396 247" data-background-color="#1ebbd7" preserveAspectRatio="xMidYMid meet" height="623" width="1000" xmlns="http://www.w3.org/2000/svg" xmlns:xlink="http://www.w3.org/1999/xlink"><defs></defs><g id="tight-bounds" transform="matrix(1,0,0,1,0.2400000000000091,-0.09999999999999432)"><svg viewBox="0 0 395.52 247.2" height="247.2" width="395.52"><g><svg></svg></g><g><svg viewBox="0 0 395.52 247.2" height="247.2" width="395.52"><g transform="matrix(1,0,0,1,75.54432,70.46210131365794)"><svg viewBox="0 0 244.43135999999998 106.27579737268411" height="106.27579737268411" width="244.43135999999998"><g><svg viewBox="0 0 244.43135999999998 106.27579737268411" height="106.27579737268411" width="244.43135999999998"><g><svg viewBox="0 0 244.43135999999998 106.27579737268411" height="106.27579737268411" width="244.43135999999998"><g><svg viewBox="0 0 244.43135999999998 106.27579737268411" height="106.27579737268411" width="244.43135999999998"><g><svg viewBox="0 0 244.43135999999998 106.27579737268411" height="106.27579737268411" width="244.43135999999998"><g><svg viewBox="0 0 244.43135999999998 57.32008686412214" height="57.32008686412214" width="244.43135999999998"><g transform="matrix(1,0,0,1,0,0)"><svg width="244.43135999999998" viewBox="2.25 -38.04999923706055 163.74000549316406 38.39999771118164" height="57.32008686412214" data-palette-color="#ffffff"><path d="M27.95-36.9Q28.25-37.3 29.88-37.68 31.5-38.05 32.95-38.05 34.4-38.05 35.35-37.65L35.35-37.65 30.45 0 23.65 0 25.6-16.9 24.95-16.7Q20.35-15.35 16.6-14.05L16.6-14.05 15.9-8.55Q14.7 0.3 7.6 0.3L7.6 0.3Q5.05 0.3 3.65-1.23 2.25-2.75 2.25-5.15L2.25-5.15Q2.25-10.5 9.8-14.8L9.8-14.8 12.35-36.5Q13.3-37.15 14.85-37.6 16.4-38.05 17.85-38.05 19.3-38.05 19.75-38L19.75-38 17.15-18.1Q20.2-19.2 24.85-20.45L24.85-20.45 26.05-20.75 27.95-36.9ZM5.75-5.9L5.75-5.9Q5.75-4.3 7.2-4.3L7.2-4.3Q8-4.3 8.25-4.78 8.5-5.25 8.63-5.58 8.75-5.9 8.85-6.45 8.95-7 9-7.43 9.05-7.85 9.1-8.55 9.15-9.25 9.2-9.65L9.2-9.65 9.3-10.4Q5.75-7.95 5.75-5.9ZM51-24.05L51-24.05Q55.6-24.05 58.67-21.1 61.75-18.15 61.75-13.9L61.75-13.9Q61.75-7.45 57.97-3.58 54.2 0.3 48.85 0.3 43.5 0.3 40.37-2.75 37.25-5.8 37.25-10.3L37.25-10.3Q37.25-16.6 41.1-20.3L41.1-20.3Q45-24.05 51-24.05ZM50.02-20Q47.65-20 46.05-17.3 44.45-14.6 44.3-10.5L44.3-10.5Q44.3-7.6 45.47-5.7 46.65-3.8 49.05-3.8 51.45-3.8 53.07-6.45 54.7-9.1 54.7-12.5 54.7-15.9 53.55-17.9L53.55-17.9Q52.4-20 50.02-20ZM75.2-34.8L75.2-34.8Q75.2-34.5 73.84-24.05L73.84-24.05 81.2-24.05 81.2-20.2 73.34-20.2 73.2-18.95Q79.05-14.05 79.05-8.25L79.05-8.25Q79.05-3.7 76.72-1.7 74.4 0.3 71.15 0.3 67.9 0.3 66.4-1.43 64.9-3.15 64.9-5.6L64.9-5.6Q64.9-6.15 65-6.8L65-6.8 66.55-20.1 66.34-20.2 62.3-20.2Q62.25-20.7 62.25-21.83 62.25-22.95 62.7-24.05L62.7-24.05 67-24.05 68.59-37.65Q69.65-38.05 71.4-38.05L71.4-38.05Q75.2-38.05 75.2-34.8ZM75.7-8.3L75.7-8.3Q75.7-11.75 72.7-15.1L72.7-15.1Q71.8-7.65 71.8-6.5L71.8-6.5Q71.8-4.25 73.25-4.25L73.25-4.25Q74.3-4.25 75-5.23 75.7-6.2 75.7-8.3ZM90.39-11.2Q93.49-11.85 95.02-13.7 96.54-15.55 96.54-17.28 96.54-19 95.62-19.63 94.69-20.25 93.59-20.25L93.59-20.25Q91.24-20.25 89.47-17.63 87.69-15 87.69-11.38 87.69-7.75 89.42-5.98 91.14-4.2 93.69-4.2L93.69-4.2Q97.44-4.2 100.89-6.8 104.34-9.4 106.49-13.6L106.49-13.6Q107.59-12.55 108.49-11L108.49-11Q106.84-7.25 102.64-3.65L102.64-3.65Q100.54-1.9 97.67-0.8 94.79 0.3 91.74 0.3L91.74 0.3Q86.74 0.3 83.84-2.75L83.84-2.75Q80.74-6.05 80.74-11.2 80.74-16.35 84.62-20.2 88.49-24.05 93.89-24.05L93.89-24.05Q97.74-24.05 100.14-22.38 102.54-20.7 102.59-17.85L102.59-17.85Q102.59-14 99.52-11.6 96.44-9.2 91.09-8.25L91.09-8.25 90.39-11.2ZM111.12 0.35Q108.04 0.35 106.29-1.38 104.54-3.1 104.54-6.1L104.54-6.1Q104.54-6.9 107.24-29.85L107.24-29.85Q107.94-35.75 110.99-37.3L110.99-37.3Q112.39-38.05 114.34-38.05L114.34-38.05Q120.94-38.05 120.94-31.95L120.94-31.95Q120.94-31.45 120.89-30.9L120.89-30.9Q120.39-24.2 112.49-17.25L112.49-17.25Q112.24-14.8 111.94-12.5L111.94-12.5Q111.34-7.35 111.34-6.8L111.34-6.8Q111.34-4.2 113.59-4.2L113.59-4.2Q116.04-4.2 118.17-7.03 120.29-9.85 121.44-14.25L121.44-14.25Q121.89-14.1 122.69-13.43 123.49-12.75 123.79-12.25L123.79-12.25Q122.99-8.1 120.19-4.3L120.19-4.3Q118.79-2.35 116.64-1.1L116.64-1.1Q114.19 0.35 111.12 0.35ZM113.19-23.75L113.04-22.25Q117.64-27.3 117.64-31.3L117.64-31.3Q117.64-33.7 115.84-33.7L115.84-33.7Q114.69-33.6 114.32-32.2 113.94-30.8 113.62-27.65 113.29-24.5 113.19-23.75L113.19-23.75ZM126.41 0.35Q123.34 0.35 121.59-1.38 119.84-3.1 119.84-6.1L119.84-6.1Q119.84-6.9 122.54-29.85L122.54-29.85Q123.24-35.75 126.29-37.3L126.29-37.3Q127.69-38.05 129.64-38.05L129.64-38.05Q136.24-38.05 136.24-31.95L136.24-31.95Q136.24-31.45 136.19-30.9L136.19-30.9Q135.69-24.2 127.79-17.25L127.79-17.25Q127.54-14.8 127.24-12.5L127.24-12.5Q126.64-7.35 126.64-6.8L126.64-6.8Q126.64-4.2 128.89-4.2L128.89-4.2Q131.34-4.2 133.46-7.03 135.59-9.85 136.74-14.25L136.74-14.25Q137.19-14.1 137.99-13.43 138.79-12.75 139.09-12.25L139.09-12.25Q138.29-8.1 135.49-4.3L135.49-4.3Q134.09-2.35 131.94-1.1L131.94-1.1Q129.49 0.35 126.41 0.35ZM128.49-23.75L128.34-22.25Q132.94-27.3 132.94-31.3L132.94-31.3Q132.94-33.7 131.14-33.7L131.14-33.7Q129.99-33.6 129.61-32.2 129.24-30.8 128.91-27.65 128.59-24.5 128.49-23.75L128.49-23.75ZM157.24 0.25L157.24 0.25Q152.64 0.25 151.14-2.95L151.14-2.95Q148.53 0.3 144.46 0.3 140.39 0.3 137.61-2.45 134.84-5.2 134.84-9.7L134.84-9.7Q134.84-16.25 138.69-20.15 142.53-24.05 148.44-24.05L148.44-24.05Q148.59-24.05 148.74-24.05L148.74-24.05Q151.24-24.05 153.34-23.2L153.34-23.2Q154.69-24.05 156.61-24.05 158.54-24.05 159.39-23.55L159.39-23.55Q158.94-19.85 158.44-16.28 157.94-12.7 157.74-11.2L157.74-11.2Q157.29-7.8 157.29-6.3L157.29-6.3Q157.29-4.3 158.89-4.3L158.89-4.3Q160.14-4.3 161.54-5.98 162.94-7.65 163.99-11.25L163.99-11.25Q165.44-9.95 165.99-8.35L165.99-8.35Q164.54-3.6 162.09-1.68 159.64 0.25 157.24 0.25ZM149.19-20.15L149.19-20.15Q145.99-20.15 144.11-17.73 142.24-15.3 141.89-10.5L141.89-10.5Q141.84-10.05 141.84-9.65L141.84-9.65Q141.84-7.2 143.01-5.75 144.19-4.3 146.03-4.3L146.03-4.3Q149.19-4.3 150.78-8.75L150.78-8.75 151.99-19.55Q150.53-20.15 149.19-20.15Z" opacity="1" transform="matrix(1,0,0,1,0,0)" fill="#ffffff" class="undefined-text-0" data-fill-palette-color="primary" id="text-0"></path></svg></g></svg></g><g transform="matrix(1,0,0,1,0,70.85198369065664)"><svg viewBox="0 0 244.43135999999998 35.42381368202748" height="35.42381368202748" width="244.43135999999998"><g transform="matrix(1,0,0,1,0,0)"><svg width="244.43135999999998" viewBox="2.049999952316284 -33.939998626708984 310.9800109863281 45.06999969482422" height="35.42381368202748" data-palette-color="#ffffff"><path d="M31.05 0L19.73 0 19.63-2.05 22.61-2.73Q22.71-2.98 22.78-3.86 22.85-4.74 22.88-6.3 22.9-7.86 22.9-10.06L22.9-10.06 22.9-18.55Q22.9-20.85 22.88-22.41 22.85-23.97 22.78-24.85 22.71-25.73 22.61-25.93L22.61-25.93 19.63-26.61 19.73-28.66 31.05-28.66 31.2-26.61 28.17-25.93Q28.08-25.73 28-24.83 27.93-23.93 27.91-22.36 27.88-20.8 27.88-18.55L27.88-18.55 27.88-10.06Q27.88-7.91 27.91-6.35 27.93-4.79 28-3.88 28.08-2.98 28.17-2.73L28.17-2.73 31.2-2.05 31.05 0ZM13.43 0L2.15 0 2.05-2.05 5.08-2.73Q5.18-2.98 5.22-3.91 5.27-4.83 5.3-6.4 5.32-7.96 5.32-10.06L5.32-10.06 5.32-18.55Q5.32-20.7 5.3-22.29 5.27-23.88 5.22-24.8 5.18-25.73 5.08-25.93L5.08-25.93 2.05-26.61 2.15-28.66 13.43-28.66 13.57-26.61 10.55-25.93Q10.45-25.73 10.38-24.85 10.3-23.97 10.28-22.41 10.25-20.85 10.25-18.55L10.25-18.55 10.25-10.06Q10.25-7.86 10.28-6.3 10.3-4.74 10.38-3.86 10.45-2.98 10.55-2.73L10.55-2.73 13.57-2.05 13.43 0ZM9.52-13.13L9.52-13.13 9.52-16.31Q10.55-16.16 12.3-16.11 14.06-16.06 16.65-16.06L16.65-16.06Q19.19-16.06 20.92-16.11 22.66-16.16 23.63-16.31L23.63-16.31 23.63-13.13Q22.56-13.23 20.92-13.28 19.29-13.33 16.65-13.33L16.65-13.33Q13.92-13.33 12.26-13.28 10.6-13.23 9.52-13.13ZM49.22 0.39L49.22 0.39Q46 0.39 43.53-1 41.07-2.39 39.7-4.86 38.33-7.32 38.33-10.5L38.33-10.5Q38.33-13.87 39.87-16.33 41.41-18.8 43.92-20.17 46.44-21.53 49.42-21.53L49.42-21.53Q52.49-21.53 54.81-20.17 57.13-18.8 58.45-16.38 59.77-13.96 59.77-10.79L59.77-10.79Q59.77-7.67 58.35-5.13 56.94-2.59 54.54-1.1 52.15 0.39 49.22 0.39ZM49.71-2.15L49.71-2.15Q51.22-2.15 52.32-3.08 53.42-4 54.03-5.71 54.64-7.42 54.64-9.62L54.64-9.62Q54.64-13.87 53.03-16.48 51.42-19.09 48.78-19.09L48.78-19.09Q46.44-19.09 45-16.99 43.56-14.89 43.56-11.43L43.56-11.43Q43.56-8.74 44.34-6.64 45.12-4.54 46.54-3.34 47.95-2.15 49.71-2.15ZM81.26-4.64L82.23-3.37Q81.4-1.61 79.67-0.61 77.94 0.39 76.03 0.39L76.03 0.39Q72.91 0.39 70.91-1.46 68.9-3.32 68.9-7.03L68.9-7.03 69.05-18.41 65.63-18.41 65.63-19.63 72.57-25.63 73.74-25.63 73.64-19.63 73.54-7.71Q73.54-5.37 74.59-4.25 75.64-3.13 77.6-3.13L77.6-3.13Q78.67-3.13 79.6-3.54 80.53-3.96 81.26-4.64L81.26-4.64ZM80.82-18.41L71.49-18.41 71.49-21.09 80.82-21.09 80.82-18.41ZM97.08 0.39L97.08 0.39Q94.15 0.39 91.81-0.93 89.46-2.25 88.1-4.64 86.73-7.03 86.73-10.21L86.73-10.21Q86.73-13.67 88.2-16.21 89.66-18.75 92.03-20.17 94.4-21.58 97.13-21.53L97.13-21.53Q101.13-21.48 103.33-18.92 105.53-16.36 105.53-11.96L105.53-11.96 105.53-10.99 90.78-10.99 90.78-13.28 101.82-13.28 101.18-12.45 101.18-13.72Q101.18-16.31 100.01-17.8 98.84-19.29 96.74-19.29L96.74-19.29Q95.42-19.29 94.25-18.51 93.08-17.72 92.35-16.16 91.61-14.6 91.61-12.26L91.61-12.26 91.61-11.52Q91.61-7.71 93.57-5.52 95.52-3.32 98.64-3.32L98.64-3.32Q100.3-3.32 101.67-3.96 103.04-4.59 104.31-6.15L104.31-6.15 105.63-4.93Q104.26-2.25 102.04-0.93 99.82 0.39 97.08 0.39ZM122.87 0L111.64 0 111.49-1.95 114.66-2.69Q114.76-3.17 114.81-4.35 114.86-5.52 114.88-7.37 114.91-9.23 114.91-11.57L114.91-11.57 114.91-17.72Q114.91-19.48 114.88-21.34 114.86-23.19 114.84-24.88 114.81-26.56 114.79-27.81 114.76-29.05 114.71-29.59L114.71-29.59 111.1-30.08 111-31.79 118.77-33.94 119.84-33.2Q119.79-31.15 119.72-29.15 119.64-27.15 119.62-24.66 119.6-22.17 119.6-18.7L119.6-18.7 119.55-11.04Q119.55-7.96 119.62-5.59 119.69-3.22 119.79-2.69L119.79-2.69 122.96-1.95 122.87 0ZM130.93-1.32L130.93-1.32Q131.03-3.03 131.05-4.42 131.07-5.81 131.07-7.2 131.07-8.59 131.07-10.06L131.07-10.06 131.07-17.72Q131.07-19.58 131.05-21.48 131.03-23.39 131-25.05 130.98-26.71 130.95-27.93 130.93-29.15 130.88-29.64L130.88-29.64 127.27-30.08 127.17-31.79 134.79-33.94 135.91-33.2Q135.81-31.2 135.74-29.17 135.66-27.15 135.64-24.49 135.62-21.83 135.52-17.92L135.52-17.92 135.66-17.87Q136.79-19.43 138.59-20.48 140.4-21.53 142.5-21.53L142.5-21.53Q144.94-21.53 146.99-20.34 149.04-19.14 150.29-16.92 151.53-14.7 151.53-11.52L151.53-11.52Q151.53-8.11 149.92-5.42 148.31-2.73 145.48-1.17 142.65 0.39 139.13 0.39L139.13 0.39Q136.98 0.39 134.86-0.07 132.73-0.54 130.93-1.32ZM140.25-2.44L140.25-2.44Q142.89-2.44 144.67-4.49 146.46-6.54 146.5-10.45L146.5-10.45Q146.55-14.26 144.75-16.04 142.94-17.82 140.4-17.82L140.4-17.82Q139.03-17.82 137.79-17.24 136.54-16.65 135.62-15.48L135.62-15.48 135.62-3.91Q136.49-3.22 137.67-2.83 138.84-2.44 140.25-2.44ZM169.46 0.39L169.46 0.39Q166.23 0.39 163.77-1 161.3-2.39 159.94-4.86 158.57-7.32 158.57-10.5L158.57-10.5Q158.57-13.87 160.11-16.33 161.64-18.8 164.16-20.17 166.67-21.53 169.65-21.53L169.65-21.53Q172.73-21.53 175.05-20.17 177.37-18.8 178.69-16.38 180-13.96 180-10.79L180-10.79Q180-7.67 178.59-5.13 177.17-2.59 174.78-1.1 172.39 0.39 169.46 0.39ZM169.95-2.15L169.95-2.15Q171.46-2.15 172.56-3.08 173.66-4 174.27-5.71 174.88-7.42 174.88-9.62L174.88-9.62Q174.88-13.87 173.27-16.48 171.65-19.09 169.02-19.09L169.02-19.09Q166.67-19.09 165.23-16.99 163.79-14.89 163.79-11.43L163.79-11.43Q163.79-8.74 164.57-6.64 165.36-4.54 166.77-3.34 168.19-2.15 169.95-2.15ZM197.93 0.39L197.93 0.39Q194.71 0.39 192.24-1 189.77-2.39 188.41-4.86 187.04-7.32 187.04-10.5L187.04-10.5Q187.04-13.87 188.58-16.33 190.12-18.8 192.63-20.17 195.14-21.53 198.12-21.53L198.12-21.53Q201.2-21.53 203.52-20.17 205.84-18.8 207.16-16.38 208.47-13.96 208.47-10.79L208.47-10.79Q208.47-7.67 207.06-5.13 205.64-2.59 203.25-1.1 200.86 0.39 197.93 0.39ZM198.42-2.15L198.42-2.15Q199.93-2.15 201.03-3.08 202.13-4 202.74-5.71 203.35-7.42 203.35-9.62L203.35-9.62Q203.35-13.87 201.74-16.48 200.13-19.09 197.49-19.09L197.49-19.09Q195.14-19.09 193.7-16.99 192.26-14.89 192.26-11.43L192.26-11.43Q192.26-8.74 193.05-6.64 193.83-4.54 195.24-3.34 196.66-2.15 198.42-2.15ZM225.76 0L215.22 0 215.07-1.9 217.85-2.69Q217.95-3.17 218-4.37 218.05-5.57 218.07-7.25 218.1-8.94 218.1-10.89L218.1-10.89 218.1-17.72Q218.1-19.48 218.07-21.36 218.05-23.24 218.02-24.9 218-26.56 217.98-27.81 217.95-29.05 217.9-29.59L217.9-29.59 214.29-30.08 214.19-31.79 221.86-33.94 222.93-33.2Q222.88-31.64 222.83-30.13 222.79-28.61 222.74-26.95 222.69-25.29 222.69-23.34 222.69-21.39 222.69-18.99L222.69-18.99 222.64-7.32Q222.64-6.05 222.69-5.1 222.74-4.15 222.79-3.54 222.83-2.93 222.83-2.69L222.83-2.69 225.86-1.9 225.76 0ZM238.7-1.95L238.56 0 232.16 0Q231.33-1.12 230.77-1.78 230.21-2.44 229.67-2.98L229.67-2.98 223.27-10.01 221.91-10.01 221.96-11.38 223.71-11.82 230.7-18.6 227.47-19.14 227.57-21.14 237.68-21.14 237.82-19.14 234.6-18.55 226.06-11.08 226.69-12.99 233.82-5.22Q234.5-4.44 235.31-3.66 236.12-2.88 236.6-2.39L236.6-2.39 238.7-1.95ZM254.33 0L242.96 0 242.81-1.95 246.08-2.69Q246.13-2.88 246.18-3.44 246.23-4 246.25-5.05 246.28-6.1 246.28-7.76L246.28-7.76 246.32-11.23Q246.32-13.04 246.23-14.53 246.13-16.02 245.93-16.99L245.93-16.99 242.66-17.68 242.66-19.48 250.28-21.44 251.21-20.7Q251.06-19.19 250.99-17.68 250.91-16.16 250.91-14.16L250.91-14.16 250.91-8.01Q250.91-6.01 250.99-4.54 251.06-3.08 251.21-2.69L251.21-2.69 254.48-1.95 254.33 0ZM248.67-26.46L248.67-26.46Q247.2-26.46 246.25-27.39 245.3-28.32 245.3-29.69L245.3-29.69Q245.3-31.01 246.25-31.96 247.2-32.91 248.67-32.91L248.67-32.91Q250.13-32.91 251.04-31.96 251.94-31.01 251.94-29.69L251.94-29.69Q251.94-28.32 251.04-27.39 250.13-26.46 248.67-26.46ZM270.79 0L259.95 0 259.8-1.9 262.83-2.69Q262.88-2.93 262.93-3.54 262.98-4.15 263-5.18 263.03-6.2 263.03-7.76L263.03-7.76 263.08-11.52Q263.08-13.13 262.98-14.58 262.88-16.02 262.69-16.99L262.69-16.99 259.56-17.68 259.56-19.48 266.79-21.44 267.81-20.65 267.52-17.97 267.67-17.92Q269.33-19.78 271.04-20.65 272.74-21.53 274.7-21.53L274.7-21.53Q276.6-21.53 278.21-20.58 279.82-19.63 280.83-17.72 281.83-15.82 281.83-12.94L281.83-12.94 281.83-7.71Q281.83-6.01 281.9-4.57 281.97-3.13 282.07-2.69L282.07-2.69 285.1-1.9 285 0 274.36 0 274.21-1.9 277.04-2.69Q277.14-3.08 277.19-3.74 277.24-4.39 277.26-5.35 277.29-6.3 277.29-7.47L277.29-7.47 277.29-12.35Q277.29-14.4 276.6-15.65 275.92-16.89 274.87-17.46 273.82-18.02 272.65-18.02L272.65-18.02Q271.13-18.02 269.86-17.31 268.59-16.6 267.67-15.33L267.67-15.33 267.67-8.01Q267.67-5.96 267.74-4.54 267.81-3.13 267.91-2.69L267.91-2.69 270.94-1.9 270.79 0ZM300.78 11.13L300.78 11.13Q296.09 11.13 293.38 9.67 290.67 8.2 290.67 5.81L290.67 5.81Q290.67 4.1 292.08 2.71 293.5 1.32 296.48 0.05L296.48 0.05 298.43 0.39Q296.97 1.32 296.14 2.49 295.31 3.66 295.31 5.03L295.31 5.03Q295.31 6.84 296.84 7.86 298.38 8.89 301.07 8.89L301.07 8.89Q304.1 8.89 306 7.59 307.9 6.3 307.9 4.3L307.9 4.3Q307.9 2.78 306.81 2.03 305.71 1.27 303.07 1.07L303.07 1.07 297.6 0.63 296.97 0.39Q294.97 0.39 293.67-0.54 292.38-1.46 292.38-2.93L292.38-2.93Q292.38-4.3 293.72-5.59 295.06-6.88 297.5-7.81L297.5-7.81 298.19-6.84Q297.36-6.3 296.94-5.83 296.53-5.37 296.53-4.93L296.53-4.93Q296.53-4.25 297.06-3.83 297.6-3.42 298.58-3.32L298.58-3.32 305.22-2.69Q308.73-2.34 310.49-0.9 312.25 0.54 312.25 3.13L312.25 3.13Q312.25 5.32 310.74 7.15 309.22 8.98 306.63 10.06 304.05 11.13 300.78 11.13ZM301.12-5.96L301.12-5.96Q298.43-5.96 296.36-6.91 294.28-7.86 293.11-9.55 291.94-11.23 291.94-13.43L291.94-13.43Q291.94-15.77 293.16-17.58 294.38-19.38 296.45-20.46 298.53-21.53 301.17-21.53L301.17-21.53Q303.75-21.53 305.78-20.51 307.81-19.48 308.98-17.72 310.15-15.97 310.15-13.72L310.15-13.72Q310.15-11.47 308.98-9.72 307.81-7.96 305.76-6.96 303.71-5.96 301.12-5.96ZM301.46-8.2L301.46-8.2Q303.27-8.2 304.34-9.62 305.41-11.04 305.41-13.43L305.41-13.43Q305.41-16.11 304.22-17.72 303.02-19.34 301.12-19.34L301.12-19.34Q299.26-19.34 298.11-17.82 296.97-16.31 296.97-13.87L296.97-13.87Q296.97-11.33 298.19-9.77 299.41-8.2 301.46-8.2ZM313.03-21.04L313.03-17.68 306.93-18.16 305.07-20.21 313.03-21.04Z" opacity="1" transform="matrix(1,0,0,1,0,0)" fill="#ffffff" class="undefined-text-1" data-fill-palette-color="secondary" id="text-1"></path></svg></g></svg></g></svg></g></svg></g></svg></g></svg></g></svg></g><g><path d="M151.089 190.27A122.216 122.216 0 1 0 151.089 56.93L156.258 56.93A117.046 117.046 0 1 1 156.258 190.27L151.089 190.27" fill="#ffffff" stroke="transparent" data-fill-palette-color="tertiary"></path></g></svg></g></svg><rect width="395.52" height="247.2" fill="none" stroke="none" visibility="hidden"></rect></g></svg></g></svg>